<mxfile host="app.diagrams.net" modified="2024-03-14T14:12:26.205Z" agent="Mozilla/5.0 (Macintosh; Intel Mac OS X 10.15; rv:106.0) Gecko/20100101 Firefox/106.0" etag="bxBhvLd3yyWDRXzZfGNC" version="24.0.6" type="device" pages="2">
  <diagram name="Data Structures" id="cSKU7ybaG0ZjtjviVNPq">
    <mxGraphModel dx="956" dy="966" grid="1" gridSize="10" guides="1" tooltips="1" connect="1" arrows="1" fold="1" page="1" pageScale="1" pageWidth="827" pageHeight="1169" math="0" shadow="0">
      <root>
        <mxCell id="0" />
        <mxCell id="1" parent="0" />
        <mxCell id="7FQR98A5w8Rx2wu0TTRn-15" value="AllocatedZones&lt;span style=&quot;white-space: pre;&quot;&gt;&lt;/span&gt;" style="swimlane;fontStyle=0;childLayout=stackLayout;horizontal=1;startSize=26;fillColor=none;horizontalStack=0;resizeParent=1;resizeParentMax=0;resizeLast=0;collapsible=1;marginBottom=0;html=1;movable=1;resizable=1;rotatable=1;deletable=1;editable=1;locked=0;connectable=1;" vertex="1" parent="1">
          <mxGeometry x="40" y="30" width="180" height="104" as="geometry" />
        </mxCell>
        <mxCell id="7FQR98A5w8Rx2wu0TTRn-16" value="&lt;div&gt;size_t&lt;span style=&quot;white-space: pre;&quot;&gt;&#x9;&lt;/span&gt;&lt;span style=&quot;white-space: pre;&quot;&gt;&#x9;&lt;span style=&quot;white-space: pre;&quot;&gt;&#x9;&lt;/span&gt;&lt;/span&gt;startPoint&lt;/div&gt;&lt;div&gt;&lt;br&gt;&lt;/div&gt;" style="text;strokeColor=none;fillColor=none;align=left;verticalAlign=top;spacingLeft=4;spacingRight=4;overflow=hidden;rotatable=1;points=[[0,0.5],[1,0.5]];portConstraint=eastwest;whiteSpace=wrap;html=1;movable=1;resizable=1;deletable=1;editable=1;locked=0;connectable=1;" vertex="1" parent="7FQR98A5w8Rx2wu0TTRn-15">
          <mxGeometry y="26" width="180" height="26" as="geometry" />
        </mxCell>
        <mxCell id="7FQR98A5w8Rx2wu0TTRn-17" value="size_t&lt;span style=&quot;white-space: pre;&quot;&gt;&#x9;&lt;/span&gt;&lt;span style=&quot;white-space: pre;&quot;&gt;&#x9;&lt;span style=&quot;white-space: pre;&quot;&gt;&#x9;&lt;/span&gt;&lt;/span&gt;len" style="text;strokeColor=none;fillColor=none;align=left;verticalAlign=top;spacingLeft=4;spacingRight=4;overflow=hidden;rotatable=1;points=[[0,0.5],[1,0.5]];portConstraint=eastwest;whiteSpace=wrap;html=1;movable=1;resizable=1;deletable=1;editable=1;locked=0;connectable=1;" vertex="1" parent="7FQR98A5w8Rx2wu0TTRn-15">
          <mxGeometry y="52" width="180" height="26" as="geometry" />
        </mxCell>
        <mxCell id="7FQR98A5w8Rx2wu0TTRn-46" value="" style="endArrow=none;html=1;rounded=0;entryX=1;entryY=-0.07;entryDx=0;entryDy=0;entryPerimeter=0;dashed=1;" edge="1" parent="7FQR98A5w8Rx2wu0TTRn-15">
          <mxGeometry width="50" height="50" relative="1" as="geometry">
            <mxPoint y="78" as="sourcePoint" />
            <mxPoint x="180" y="78" as="targetPoint" />
          </mxGeometry>
        </mxCell>
        <mxCell id="7FQR98A5w8Rx2wu0TTRn-18" value="AllocatedZones&lt;span style=&quot;white-space: pre;&quot;&gt;&#x9;&lt;/span&gt;*next" style="text;strokeColor=none;fillColor=none;align=left;verticalAlign=top;spacingLeft=4;spacingRight=4;overflow=hidden;rotatable=1;points=[[0,0.5],[1,0.5]];portConstraint=eastwest;whiteSpace=wrap;html=1;movable=1;resizable=1;deletable=1;editable=1;locked=0;connectable=1;" vertex="1" parent="7FQR98A5w8Rx2wu0TTRn-15">
          <mxGeometry y="78" width="180" height="26" as="geometry" />
        </mxCell>
        <mxCell id="7FQR98A5w8Rx2wu0TTRn-44" value="" style="group" vertex="1" connectable="0" parent="1">
          <mxGeometry x="40" y="210" width="150" height="196" as="geometry" />
        </mxCell>
        <mxCell id="7FQR98A5w8Rx2wu0TTRn-7" value="&lt;div&gt;Zone&lt;/div&gt;" style="swimlane;fontStyle=0;childLayout=stackLayout;horizontal=1;startSize=40;fillColor=none;horizontalStack=0;resizeParent=1;resizeParentMax=0;resizeLast=0;collapsible=1;marginBottom=0;html=1;shadow=0;rounded=0;glass=0;swimlaneLine=1;movable=1;resizable=1;rotatable=1;deletable=1;editable=1;locked=0;connectable=1;" vertex="1" parent="7FQR98A5w8Rx2wu0TTRn-44">
          <mxGeometry width="150" height="196" as="geometry">
            <mxRectangle x="240" y="40" width="70" height="30" as="alternateBounds" />
          </mxGeometry>
        </mxCell>
        <mxCell id="7FQR98A5w8Rx2wu0TTRn-8" value="&lt;div&gt;size_t&lt;span style=&quot;white-space: pre;&quot;&gt;&#x9;&lt;/span&gt;&lt;span style=&quot;white-space: pre;&quot;&gt;&#x9;&lt;/span&gt;&lt;span style=&quot;white-space: pre;&quot;&gt;&#x9;size&lt;/span&gt;&lt;br&gt;&lt;/div&gt;" style="text;strokeColor=none;fillColor=none;align=left;verticalAlign=top;spacingLeft=4;spacingRight=4;overflow=hidden;rotatable=1;points=[[0,0.5],[1,0.5]];portConstraint=eastwest;whiteSpace=wrap;html=1;movable=1;resizable=1;deletable=1;editable=1;locked=0;connectable=1;" vertex="1" parent="7FQR98A5w8Rx2wu0TTRn-7">
          <mxGeometry y="40" width="150" height="26" as="geometry" />
        </mxCell>
        <mxCell id="7FQR98A5w8Rx2wu0TTRn-20" value="size_t&lt;span style=&quot;white-space: pre;&quot;&gt;&#x9;&lt;/span&gt;&lt;span style=&quot;white-space: pre;&quot;&gt;&#x9;&lt;/span&gt;&lt;span style=&quot;white-space: pre;&quot;&gt;&#x9;used&lt;/span&gt;" style="text;strokeColor=none;fillColor=none;align=left;verticalAlign=top;spacingLeft=4;spacingRight=4;overflow=hidden;rotatable=1;points=[[0,0.5],[1,0.5]];portConstraint=eastwest;whiteSpace=wrap;html=1;movable=1;resizable=1;deletable=1;editable=1;locked=0;connectable=1;" vertex="1" parent="7FQR98A5w8Rx2wu0TTRn-7">
          <mxGeometry y="66" width="150" height="26" as="geometry" />
        </mxCell>
        <mxCell id="7FQR98A5w8Rx2wu0TTRn-13" value="&lt;div align=&quot;justify&quot;&gt;char &lt;span style=&quot;white-space: pre;&quot;&gt;&#x9;&lt;/span&gt;&lt;span style=&quot;white-space: pre;&quot;&gt;&#x9;&lt;/span&gt;&lt;span style=&quot;white-space: pre;&quot;&gt;&#x9;&lt;/span&gt;*ptr&lt;/div&gt;&lt;div align=&quot;justify&quot;&gt;&lt;br&gt;&lt;/div&gt;" style="text;strokeColor=none;fillColor=none;align=left;verticalAlign=top;spacingLeft=4;spacingRight=4;overflow=hidden;rotatable=1;points=[[0,0.5],[1,0.5]];portConstraint=eastwest;whiteSpace=wrap;html=1;movable=1;resizable=1;deletable=1;editable=1;locked=0;connectable=1;" vertex="1" parent="7FQR98A5w8Rx2wu0TTRn-7">
          <mxGeometry y="92" width="150" height="26" as="geometry" />
        </mxCell>
        <mxCell id="7FQR98A5w8Rx2wu0TTRn-14" value="&lt;div&gt;AllocatedZones&lt;span style=&quot;white-space: pre;&quot;&gt;&#x9;*alz&lt;br&gt;&lt;/span&gt;&lt;/div&gt;&lt;div&gt;&lt;span style=&quot;white-space: pre;&quot;&gt;&lt;br&gt;&lt;/span&gt;&lt;/div&gt;" style="text;strokeColor=none;fillColor=none;align=left;verticalAlign=top;spacingLeft=4;spacingRight=4;overflow=hidden;rotatable=1;points=[[0,0.5],[1,0.5]];portConstraint=eastwest;whiteSpace=wrap;html=1;movable=1;resizable=1;deletable=1;editable=1;locked=0;connectable=1;" vertex="1" parent="7FQR98A5w8Rx2wu0TTRn-7">
          <mxGeometry y="118" width="150" height="26" as="geometry" />
        </mxCell>
        <mxCell id="7FQR98A5w8Rx2wu0TTRn-43" value="" style="endArrow=none;html=1;rounded=0;entryX=1;entryY=-0.07;entryDx=0;entryDy=0;entryPerimeter=0;exitX=0.001;exitY=0.93;exitDx=0;exitDy=0;exitPerimeter=0;dashed=1;" edge="1" parent="7FQR98A5w8Rx2wu0TTRn-7">
          <mxGeometry width="50" height="50" relative="1" as="geometry">
            <mxPoint x="3.4111602431607935e-14" y="143.99999999999994" as="sourcePoint" />
            <mxPoint x="149.85" y="143.99999999999994" as="targetPoint" />
          </mxGeometry>
        </mxCell>
        <mxCell id="7FQR98A5w8Rx2wu0TTRn-29" value="Zone*&lt;span style=&quot;white-space: pre;&quot;&gt;&#x9;&lt;/span&gt;&lt;span style=&quot;white-space: pre;&quot;&gt;&#x9;&lt;/span&gt;&lt;span style=&quot;white-space: pre;&quot;&gt;&#x9;&lt;/span&gt;*prev" style="text;strokeColor=none;fillColor=none;align=left;verticalAlign=middle;spacingLeft=4;spacingRight=4;overflow=hidden;rotatable=1;points=[[0,0.5],[1,0.5]];portConstraint=eastwest;html=1;movable=1;resizable=1;deletable=1;editable=1;locked=0;connectable=1;container=0;labelBorderColor=none;whiteSpace=wrap;textShadow=0;labelBackgroundColor=none;horizontal=1;" vertex="1" parent="7FQR98A5w8Rx2wu0TTRn-7">
          <mxGeometry y="144" width="150" height="26" as="geometry" />
        </mxCell>
        <mxCell id="7FQR98A5w8Rx2wu0TTRn-32" value="Zone*&lt;span style=&quot;white-space: pre;&quot;&gt;&#x9;&lt;/span&gt;&lt;span style=&quot;white-space: pre;&quot;&gt;&#x9;&lt;/span&gt;&lt;span style=&quot;white-space: pre;&quot;&gt;&#x9;&lt;/span&gt;*next" style="text;strokeColor=none;fillColor=none;align=left;verticalAlign=top;spacingLeft=4;spacingRight=4;overflow=hidden;rotatable=1;points=[[0,0.5],[1,0.5]];portConstraint=eastwest;whiteSpace=wrap;html=1;movable=1;resizable=1;deletable=1;editable=1;locked=0;connectable=1;" vertex="1" parent="7FQR98A5w8Rx2wu0TTRn-7">
          <mxGeometry y="170" width="150" height="26" as="geometry" />
        </mxCell>
        <mxCell id="7FQR98A5w8Rx2wu0TTRn-42" value="" style="group" vertex="1" connectable="0" parent="7FQR98A5w8Rx2wu0TTRn-44">
          <mxGeometry x="58" y="152" width="40" height="34" as="geometry" />
        </mxCell>
        <mxCell id="7FQR98A5w8Rx2wu0TTRn-36" value="" style="edgeStyle=segmentEdgeStyle;endArrow=classic;html=1;curved=0;rounded=0;endSize=8;startSize=8;" edge="1" parent="7FQR98A5w8Rx2wu0TTRn-42">
          <mxGeometry width="50" height="50" relative="1" as="geometry">
            <mxPoint x="40" y="0.6666666666666288" as="sourcePoint" />
            <mxPoint y="0.6666666666666288" as="targetPoint" />
          </mxGeometry>
        </mxCell>
        <mxCell id="7FQR98A5w8Rx2wu0TTRn-37" value="" style="edgeStyle=segmentEdgeStyle;endArrow=classic;html=1;curved=0;rounded=0;endSize=8;startSize=8;" edge="1" parent="7FQR98A5w8Rx2wu0TTRn-42">
          <mxGeometry width="50" height="50" relative="1" as="geometry">
            <mxPoint y="0.6666666666666288" as="sourcePoint" />
            <mxPoint y="34" as="targetPoint" />
          </mxGeometry>
        </mxCell>
        <mxCell id="7FQR98A5w8Rx2wu0TTRn-38" value="" style="edgeStyle=segmentEdgeStyle;endArrow=classic;html=1;curved=0;rounded=0;endSize=8;startSize=8;" edge="1" parent="7FQR98A5w8Rx2wu0TTRn-42">
          <mxGeometry width="50" height="50" relative="1" as="geometry">
            <mxPoint y="34" as="sourcePoint" />
            <mxPoint x="40" y="34" as="targetPoint" />
          </mxGeometry>
        </mxCell>
        <mxCell id="7FQR98A5w8Rx2wu0TTRn-41" value="" style="edgeStyle=segmentEdgeStyle;endArrow=classic;html=1;curved=0;rounded=0;endSize=8;startSize=8;" edge="1" parent="7FQR98A5w8Rx2wu0TTRn-42">
          <mxGeometry width="50" height="50" relative="1" as="geometry">
            <mxPoint x="40" y="33.99666666666667" as="sourcePoint" />
            <mxPoint x="40" as="targetPoint" />
          </mxGeometry>
        </mxCell>
      </root>
    </mxGraphModel>
  </diagram>
  <diagram id="s2dBYa7SjFn327X7AKuu" name="Sayfa -2">
    <mxGraphModel dx="791" dy="799" grid="1" gridSize="10" guides="1" tooltips="1" connect="1" arrows="1" fold="1" page="1" pageScale="1" pageWidth="827" pageHeight="1169" math="0" shadow="0">
      <root>
        <mxCell id="0" />
        <mxCell id="1" parent="0" />
        <mxCell id="0fISBuG9UAAg7-5-IOFP-1" value="AllocatedZones&lt;span style=&quot;white-space: pre;&quot;&gt;&lt;/span&gt;" style="swimlane;fontStyle=0;childLayout=stackLayout;horizontal=1;startSize=26;fillColor=none;horizontalStack=0;resizeParent=1;resizeParentMax=0;resizeLast=0;collapsible=1;marginBottom=0;html=1;movable=1;resizable=1;rotatable=1;deletable=1;editable=1;locked=0;connectable=1;" vertex="1" parent="1">
          <mxGeometry x="10" y="10" width="180" height="104" as="geometry" />
        </mxCell>
        <mxCell id="0fISBuG9UAAg7-5-IOFP-2" value="&lt;div&gt;size_t&lt;span style=&quot;white-space: pre;&quot;&gt;&#x9;&lt;/span&gt;&lt;span style=&quot;white-space: pre;&quot;&gt;&#x9;&lt;span style=&quot;white-space: pre;&quot;&gt;&#x9;&lt;/span&gt;&lt;/span&gt;startPoint&lt;/div&gt;&lt;div&gt;&lt;br&gt;&lt;/div&gt;" style="text;strokeColor=none;fillColor=none;align=left;verticalAlign=top;spacingLeft=4;spacingRight=4;overflow=hidden;rotatable=1;points=[[0,0.5],[1,0.5]];portConstraint=eastwest;whiteSpace=wrap;html=1;movable=1;resizable=1;deletable=1;editable=1;locked=0;connectable=1;" vertex="1" parent="0fISBuG9UAAg7-5-IOFP-1">
          <mxGeometry y="26" width="180" height="26" as="geometry" />
        </mxCell>
        <mxCell id="0fISBuG9UAAg7-5-IOFP-3" value="size_t&lt;span style=&quot;white-space: pre;&quot;&gt;&#x9;&lt;/span&gt;&lt;span style=&quot;white-space: pre;&quot;&gt;&#x9;&lt;span style=&quot;white-space: pre;&quot;&gt;&#x9;&lt;/span&gt;&lt;/span&gt;len" style="text;strokeColor=none;fillColor=none;align=left;verticalAlign=top;spacingLeft=4;spacingRight=4;overflow=hidden;rotatable=1;points=[[0,0.5],[1,0.5]];portConstraint=eastwest;whiteSpace=wrap;html=1;movable=1;resizable=1;deletable=1;editable=1;locked=0;connectable=1;" vertex="1" parent="0fISBuG9UAAg7-5-IOFP-1">
          <mxGeometry y="52" width="180" height="26" as="geometry" />
        </mxCell>
        <mxCell id="0fISBuG9UAAg7-5-IOFP-4" value="" style="endArrow=none;html=1;rounded=0;entryX=1;entryY=-0.07;entryDx=0;entryDy=0;entryPerimeter=0;dashed=1;" edge="1" parent="0fISBuG9UAAg7-5-IOFP-1">
          <mxGeometry width="50" height="50" relative="1" as="geometry">
            <mxPoint y="78" as="sourcePoint" />
            <mxPoint x="180" y="78" as="targetPoint" />
          </mxGeometry>
        </mxCell>
        <mxCell id="0fISBuG9UAAg7-5-IOFP-5" value="AllocatedZones&lt;span style=&quot;white-space: pre;&quot;&gt;&#x9;&lt;/span&gt;*next" style="text;strokeColor=none;fillColor=none;align=left;verticalAlign=top;spacingLeft=4;spacingRight=4;overflow=hidden;rotatable=1;points=[[0,0.5],[1,0.5]];portConstraint=eastwest;whiteSpace=wrap;html=1;movable=1;resizable=1;deletable=1;editable=1;locked=0;connectable=1;" vertex="1" parent="0fISBuG9UAAg7-5-IOFP-1">
          <mxGeometry y="78" width="180" height="26" as="geometry" />
        </mxCell>
        <mxCell id="0fISBuG9UAAg7-5-IOFP-6" value="&lt;p style=&quot;line-height: 100%; font-size: 18px;&quot;&gt;&lt;font style=&quot;font-size: 18px;&quot;&gt;Allocated Zones&lt;/font&gt;&lt;br&gt;&lt;/p&gt;&lt;p&gt;Memory addeslerine gore silanmis sekilde linked list tutulur. Bir AZnin bitisinden diger AZnin baslangicina kadar olan alan allocate edilmemis demektir.&lt;br&gt;&lt;/p&gt;&lt;p&gt;&lt;/p&gt;" style="text;html=1;whiteSpace=wrap;overflow=hidden;rounded=0;" vertex="1" parent="1">
          <mxGeometry x="220" y="10" width="600" height="110" as="geometry" />
        </mxCell>
      </root>
    </mxGraphModel>
  </diagram>
</mxfile>
